<svg xmlns="http://www.w3.org/2000/svg" xmlns:xlink="http://www.w3.org/1999/xlink" width="1920" zoomAndPan="magnify" viewBox="0 0 1440 809.999993" height="1080" preserveAspectRatio="xMidYMid meet" version="1.0"><rect x="-144" width="1728" fill="#ffffff" y="-80.999999" height="971.999992" fill-opacity="1"/><rect x="-144" width="1728" fill="#ffffff" y="-80.999999" height="971.999992" fill-opacity="1"/><rect x="-144" width="1728" fill="#ffffff" y="-80.999999" height="971.999992" fill-opacity="1"/><rect x="-144" width="1728" fill="#ffffff" y="-80.999999" height="971.999992" fill-opacity="1"/><path fill="#4c5154" d="M 537.4375 465.292969 L 657.605469 345.132812 L 359.730469 47.277344 C 293.488281 113.515625 293.488281 221.148438 359.730469 287.386719 Z M 825.546875 388.226562 C 890.300781 418.585938 981.808594 397.144531 1049.324219 329.632812 C 1130.640625 248.324219 1146.140625 132.195312 1083.929688 69.992188 C 1021.511719 7.789062 905.164062 23.285156 824.058594 104.597656 C 756.542969 172.109375 735.3125 263.609375 765.460938 328.359375 C 670.980469 422.621094 350.8125 742.765625 350.8125 742.765625 L 410.898438 802.847656 L 703.039062 510.726562 L 995.183594 802.847656 L 1055.269531 742.765625 L 763.125 450.644531 Z M 825.546875 388.226562 " fill-opacity="1" fill-rule="nonzero"/></svg>